<svg width="260" height="260" viewBox="0 0 260 260" fill="none" xmlns="http://www.w3.org/2000/svg">
<path d="M0 76C0 34.0264 34.0264 0 76 0V0V76H0V76Z" fill="#00B1BC"/>
<path d="M0 184H76V260V260C34.0264 260 0 225.974 0 184V184Z" fill="#00B1BC"/>
<path d="M0 92H38C58.9868 92 76 109.013 76 130V130C76 150.987 58.9868 168 38 168H0V92Z" fill="#00B1BC"/>
<path d="M92 0H168V38C168 58.9868 150.987 76 130 76V76C109.013 76 92 58.9868 92 38V0Z" fill="#00B1BC"/>
<path d="M92 222C92 201.013 109.013 184 130 184V184C150.987 184 168 201.013 168 222V260H92V222Z" fill="#00B1BC"/>
<path d="M184 0V0C225.974 0 260 34.0264 260 76V76H184V0Z" fill="#00B1BC"/>
<path d="M184 184H210C237.614 184 260 206.386 260 234V260H234C206.386 260 184 237.614 184 210V184Z" fill="#9747FF"/>
<path d="M130 92L168 130L130 168L92 130L130 92Z" fill="#9747FF"/>
<path d="M184 130C184 109.013 201.013 92 222 92H260V168H222C201.013 168 184 150.987 184 130V130Z" fill="#00B1BC"/>
</svg>
